<svg xmlns="http://www.w3.org/2000/svg" xmlns:xlink="http://www.w3.org/1999/xlink" xmlns:serif="http://www.serif.com/" version="1.1" xml:space="preserve" style="fill-rule:evenodd;clip-rule:evenodd;stroke-linejoin:round;stroke-miterlimit:2;" viewBox="725.48 731.96 420 420">
    <g>
        <g transform="matrix(-0.689773,0.724025,-0.724025,-0.689773,2260.76,915.124)">
            <path d="M865.998,767.736L861.491,767.736L861.491,890.944L884.11,890.944L884.11,786.238L865.998,767.736Z"/>
        </g>
        <g transform="matrix(0.999927,0.0120729,0.0120729,-0.999927,-10.0763,1873.9)">
            <path d="M865.998,767.736L861.491,767.736L861.491,890.944L884.11,890.944L884.11,786.238L865.998,767.736Z"/>
        </g>
        <g transform="matrix(0.689035,0.724728,0.724728,-0.689035,-391.556,915.935)">
            <path d="M865.998,767.736L861.491,767.736L861.491,890.944L884.11,890.944L884.11,786.238L865.998,767.736Z"/>
        </g>
        <g transform="matrix(-0.00940631,0.999956,0.999956,0.00940631,1.24855,-1.09256)">
            <path d="M865.998,767.736L861.491,767.736L861.491,890.944L884.11,890.944L884.11,786.238L865.998,767.736Z"/>
        </g>
        <g transform="matrix(0.640604,0.691822,-0.77538,0.717975,1062.4,-382.693)">
            <rect x="924.311" y="841.353" width="21.694" height="83.436"/>
        </g>
        <g transform="matrix(0.640604,0.691822,-0.77538,0.717975,978.704,-298.006)">
            <rect x="924.311" y="841.353" width="21.694" height="83.436"/>
        </g>
        <g transform="matrix(-0.664349,0.669052,-0.749859,-0.744589,2176.73,930.316)">
            <rect x="924.311" y="841.353" width="21.694" height="83.436"/>
        </g>
        <g transform="matrix(-0.664349,0.669052,-0.749859,-0.744589,2260.2,1012.97)">
            <rect x="924.311" y="841.353" width="21.694" height="83.436"/>
        </g>
        <g transform="matrix(0.942863,0,0,1.05674,53.4418,-52.7665)">
            <rect x="924.311" y="841.353" width="21.694" height="83.436"/>
        </g>
        <g transform="matrix(0.942863,0,0,1.05674,53.2529,64.7233)">
            <rect x="924.311" y="841.353" width="21.694" height="83.436"/>
        </g>
        <g transform="matrix(0.00437561,0.942853,-1.0274,0.00476798,1898.11,53.8421)">
            <rect x="924.311" y="841.353" width="21.694" height="83.436"/>
        </g>
        <g transform="matrix(0.00437561,0.942853,-1.05673,0.00490409,1804.17,54.6614)">
            <rect x="924.311" y="841.353" width="21.694" height="83.436"/>
        </g>
        <path d="M935.483,731.956C1051.38,731.956 1145.48,826.054 1145.48,941.956C1145.48,1057.86 1051.38,1151.96 935.483,1151.96C819.58,1151.96 725.483,1057.86 725.483,941.956C725.483,826.054 819.58,731.956 935.483,731.956ZM935.4,757C1037.5,757 1120.4,839.896 1120.4,942C1120.4,1044.1 1037.5,1127 935.4,1127C833.296,1127 750.4,1044.1 750.4,942C750.4,839.896 833.296,757 935.4,757Z"/>
        <g transform="matrix(0.956832,0,0,1.00622,51.8281,-13.8493)">
            <ellipse cx="923.559" cy="948.405" rx="36.579" ry="34.784"/>
        </g>
        <g transform="matrix(1,0,0,1,-0.155392,0.0276846)">
            <path d="M865.998,767.736L861.491,767.736L861.491,890.944L884.11,890.944L884.11,786.238L865.998,767.736Z"/>
        </g>
        <g transform="matrix(0.705468,0.708741,-0.708741,0.705468,942.9,-385.94)">
            <path d="M865.998,767.736L861.491,767.736L861.491,890.944L884.11,890.944L884.11,786.238L865.998,767.736Z"/>
        </g>
        <g transform="matrix(0.000595169,1.0156,-0.969858,0.000568364,1852.23,-8.85025)">
            <path d="M865.998,767.736L861.491,767.736L861.491,890.944L884.11,890.944L884.11,786.238L865.998,767.736Z"/>
        </g>
        <g transform="matrix(-0.718784,0.695233,0.695233,0.718784,950.666,-385.54)">
            <path d="M865.998,767.736L861.491,767.736L861.491,890.944L884.11,890.944L884.11,786.238L865.998,767.736Z"/>
        </g>
        <g transform="matrix(-0.999975,0.00707413,0.00703124,0.993913,1866.27,-2.32154)">
            <path d="M865.998,767.736L861.491,767.736L861.491,890.944L884.11,890.944L884.11,786.238L865.998,767.736Z"/>
        </g>
        <g transform="matrix(-0.694901,-0.719106,-0.719106,0.694901,2261.16,955.869)">
            <path d="M865.998,767.736L861.491,767.736L861.491,890.944L884.11,890.944L884.11,786.238L865.998,767.736Z"/>
        </g>
        <g transform="matrix(0.0109059,-0.999941,-0.999941,-0.0109059,1867.84,1884.05)">
            <path d="M865.998,767.736L861.491,767.736L861.491,890.944L884.11,890.944L884.11,786.238L865.998,767.736Z"/>
        </g>
        <g transform="matrix(0.71196,-0.70222,-0.698054,-0.707737,928.815,2265.81)">
            <path d="M865.998,767.736L861.491,767.736L861.491,890.944L884.11,890.944L884.11,786.238L865.998,767.736Z"/>
        </g>
        <g transform="matrix(0.705349,-0.70886,0.70886,0.705349,-392.075,940.059)">
            <path d="M865.998,767.736L861.491,767.736L861.491,890.944L884.11,890.944L884.11,786.238L865.998,767.736Z"/>
        </g>
        <g transform="matrix(0.0156397,-0.999878,0.999878,0.0156397,-19.7611,1863.86)">
            <path d="M865.998,767.736L861.491,767.736L861.491,890.944L884.11,890.944L884.11,786.238L865.998,767.736Z"/>
        </g>
        <g transform="matrix(-0.705029,-0.709179,0.709179,-0.705029,926.931,2269.84)">
            <path d="M865.998,767.736L861.491,767.736L861.491,890.944L884.11,890.944L884.11,786.238L865.998,767.736Z"/>
        </g>
        <g transform="matrix(-0.999974,0.00722601,-0.00722601,-0.999974,1876.68,1876.53)">
            <path d="M865.998,767.736L861.491,767.736L861.491,890.944L884.11,890.944L884.11,786.238L865.998,767.736Z"/>
        </g>
    </g>
</svg>